:SAMPLES-PER-SECOND 30
:FULLY-SPECIFIED
:DEGREES
419
root  -3.11865 40.9749 0.859523 -178.935 -85.9075 -176.419
RightUpLeg  -3.71406e-005 -1.21051 -2.41888
RightLeg  -4.35955 -15.5017 1.42377
RightFoot  1.32036 -0.455548 4.19231
RightToes  -3.11842e-008 1.75238e-005 3.56266e-009
Spine  -2.47729 -2.64586 -8.39622
Spine1  -7.45801 -3.09101 8.54277
HEad  -9.10923 9.20361 -1.74267
LeftShoulder1  3.46244 -7.24818 -26.0831
LeftArm  -44.3739 -36.7052 -36.8339
LeftForeArm  -41.1735 -29.857 -8.28405
LeftHand  1.39536 15.0688 16.9159
RightShoulder  3.46387 7.01599 26.9234
RightArm  17.7758 -11.3269 36.409
RightForeArm  99.1219 68.7606 146.562
RightHand  -0.110821 3.45573 -1.70268
LeftUpLeg  0.242262 0.239224 1.53423
LeftLeg  -5.34198 19.5386 -2.17014
LeftFoot  1.36595 0.177391 -1.54732
LeftToes  4.7713e-008 1.46693e-008 1.32589e-009
420
root  -3.10979 40.9756 0.831559 -178.648 -85.9238 -176.619
RightUpLeg  -0.0964821 -1.18314 -2.39108
RightLeg  -4.38331 -15.5561 1.44236
RightFoot  1.33229 -0.451926 4.18131
RightToes  -3.11842e-008 1.75238e-005 3.56266e-009
Spine  -2.58907 -2.65676 -8.0487
Spine1  -7.17574 -3.04956 7.78623
HEad  -9.496 9.01787 -1.46362
LeftShoulder1  3.37116 -7.06398 -25.768
LeftArm  -44.3649 -37.1082 -36.6615
LeftForeArm  -40.1691 -33.971 -9.41183
LeftHand  1.19521 14.548 15.4491
RightShoulder  3.52557 7.18821 26.9709
RightArm  18.2408 -12.6597 35.3917
RightForeArm  99.8212 68.4522 147.153
RightHand  -0.129457 3.4727 -1.94207
LeftUpLeg  0.141499 0.223964 1.56135
LeftLeg  -5.3684 19.5306 -2.16218
LeftFoot  1.44338 0.180971 -1.60459
LeftToes  4.7713e-008 1.46693e-008 1.32589e-009
421
root  -3.09837 40.9767 0.803284 -178.738 -85.835 -176.409
RightUpLeg  -0.185579 -1.09456 -2.30994
RightLeg  -4.52815 -15.556 1.46754
RightFoot  1.40755 -0.437619 4.00379
RightToes  -3.11842e-008 1.75238e-005 3.56266e-009
Spine  -2.22545 -2.53285 -7.65909
Spine1  -7.59328 -2.85857 7.04871
HEad  -9.74117 8.47137 -1.15678
LeftShoulder1  3.26235 -6.8831 -25.2547
LeftArm  -43.6741 -37.4118 -36.4273
LeftForeArm  -39.296 -39.0061 -10.9899
LeftHand  1.10206 14.0989 15.0284
RightShoulder  3.50609 7.11929 27.0025
RightArm  18.5261 -13.795 34.7981
RightForeArm  99.4446 68.3436 147.299
RightHand  -0.110774 3.41059 -1.70503
LeftUpLeg  0.0162436 0.222575 1.61687
LeftLeg  -5.38058 19.627 -2.14426
LeftFoot  1.48014 0.188805 -1.73045
LeftToes  4.7713e-008 1.46693e-008 1.32589e-009
422
root  -3.08269 40.9776 0.780863 -177.886 -85.4809 -177.169
RightUpLeg  -0.44204 -1.06281 -2.30779
RightLeg  -4.34458 -15.2572 1.37816
RightFoot  1.35201 -0.434775 3.9914
RightToes  -3.11842e-008 1.75238e-005 3.56266e-009
Spine  -2.38116 -2.33679 -7.76043
Spine1  -7.16137 -2.66783 6.97618
HEad  -10.5815 8.10766 -1.26986
LeftShoulder1  3.13307 -6.60743 -24.811
LeftArm  -45.1909 -38.1561 -37.0355
LeftForeArm  -37.5254 -43.4108 -12.5524
LeftHand  0.914397 13.5423 13.4515
RightShoulder  3.48167 7.07309 26.9123
RightArm  18.8047 -14.4021 34.1547
RightForeArm  99.9482 68.1471 147.667
RightHand  -0.130804 3.59207 -1.94319
LeftUpLeg  0.0196289 0.200467 1.59689
LeftLeg  -5.57527 19.9922 -2.24189
LeftFoot  1.57981 0.185704 -1.68879
LeftToes  4.7713e-008 1.46693e-008 1.32589e-009
423
root  -3.08334 40.9777 0.762121 -177.816 -85.06 -177.372
RightUpLeg  -0.380259 -1.08643 -2.31024
RightLeg  -4.26978 -14.8096 1.35889
RightFoot  1.29631 -0.435771 4.0336
RightToes  -3.11842e-008 1.75238e-005 3.56266e-009
Spine  -2.71033 -2.17425 -7.74263
Spine1  -6.35228 -2.51945 6.7878
HEad  -11.2721 7.86217 -0.996247
LeftShoulder1  3.01967 -6.40544 -24.2756
LeftArm  -47.7047 -38.9479 -38.2136
LeftForeArm  -35.6807 -45.8014 -13.4941
LeftHand  0.722036 12.7321 11.9901
RightShoulder  3.64023 7.41622 27.3431
RightArm  18.6461 -14.6763 33.3737
RightForeArm  99.7965 68.2567 147.475
RightHand  -0.129939 3.56096 -1.9362
LeftUpLeg  0.244303 0.238956 1.61218
LeftLeg  -5.63613 20.3662 -2.27846
LeftFoot  1.53134 0.193616 -1.82085
LeftToes  4.7713e-008 1.46693e-008 1.32589e-009
424
root  -3.08293 40.9761 0.746545 -178.349 -84.7042 -177.062
RightUpLeg  -0.167625 -1.07519 -2.25769
RightLeg  -4.29008 -14.4551 1.35184
RightFoot  1.28861 -0.432363 4.00411
RightToes  -3.11842e-008 1.75238e-005 3.56266e-009
Spine  -3.07429 -2.02526 -7.66944
Spine1  -5.45931 -2.40158 6.68494
HEad  -11.3657 7.56229 -0.968627
LeftShoulder1  3.02862 -6.44516 -24.2411
LeftArm  -50.2149 -39.2993 -38.7537
LeftForeArm  -34.5118 -46.3915 -13.7148
LeftHand  0.658072 12.4775 11.385
RightShoulder  3.79514 7.74128 27.7708
RightArm  18.491 -15.2314 32.8634
RightForeArm  99.5193 68.4319 147.16
RightHand  -0.159611 3.44758 -2.34309
LeftUpLeg  0.439554 0.333723 1.67293
LeftLeg  -5.41876 20.6337 -2.21783
LeftFoot  1.36208 0.201972 -1.96233
LeftToes  4.7713e-008 1.46693e-008 1.32589e-009
425
root  -3.0831 40.971 0.743829 -178.88 -84.6695 -176.721
RightUpLeg  -0.034236 -1.11155 -2.23876
RightLeg  -4.12833 -14.3725 1.33258
RightFoot  1.16609 -0.432152 4.02268
RightToes  -3.11842e-008 1.75238e-005 3.56266e-009
Spine  -3.55895 -2.17499 -7.53484
Spine1  -4.44086 -2.58426 6.5833
HEad  -11.3976 8.35234 -1.19631
LeftShoulder1  3.05784 -6.45803 -24.5078
LeftArm  -52.2792 -39.365 -38.2963
LeftForeArm  -32.5639 -44.7496 -12.9254
LeftHand  0.640113 12.075 11.7304
RightShoulder  3.85907 7.83908 28.0522
RightArm  18.5303 -15.4583 32.8918
RightForeArm  98.8259 68.8627 146.354
RightHand  -0.147119 3.33616 -2.19807
LeftUpLeg  0.562622 0.422351 1.72403
LeftLeg  -5.21481 20.5688 -2.17186
LeftFoot  1.2333 0.194835 -1.86548
LeftToes  4.7713e-008 1.46693e-008 1.32589e-009
426
root  -3.08609 40.9678 0.741206 -179.215 -84.7662 -176.623
RightUpLeg  0.166294 -1.10022 -2.19804
RightLeg  -3.97048 -14.5171 1.24975
RightFoot  1.07262 -0.429893 4.0096
RightToes  -3.11842e-008 1.75238e-005 3.56266e-009
Spine  -4.24397 -2.39714 -7.86388
Spine1  -3.16209 -2.89681 7.06417
HEad  -11.299 8.59195 -1.25859
LeftShoulder1  3.07424 -6.49356 -24.5647
LeftArm  -53.1214 -38.7277 -37.3201
LeftForeArm  -33.2187 -41.7889 -11.77
LeftHand  0.749726 12.412 12.91
RightShoulder  3.79568 7.66703 28.0037
RightArm  18.8807 -15.3076 33.233
RightForeArm  98.1514 69.5919 144.964
RightHand  -0.117987 3.32159 -1.8139
LeftUpLeg  0.711003 0.462109 1.72551
LeftLeg  -4.98956 20.4412 -2.07043
LeftFoot  1.11501 0.190438 -1.81381
LeftToes  4.7713e-008 1.46693e-008 1.32589e-009
427
root  -3.09372 40.9664 0.738006 -178.81 -84.9875 -177.238
RightUpLeg  0.381549 -1.10877 -2.22314
RightLeg  -3.85403 -14.6828 1.14754
RightFoot  0.976844 -0.428596 4.00958
RightToes  -3.11842e-008 1.75238e-005 3.56266e-009
Spine  -4.2926 -2.65138 -8.31455
Spine1  -2.87865 -3.24259 7.76252
HEad  -10.543 8.31095 -1.18003
LeftShoulder1  3.12384 -6.55699 -24.8792
LeftArm  -53.2113 -37.8117 -35.8447
LeftForeArm  -35.0928 -38.4155 -10.6372
LeftHand  0.978896 13.3682 14.624
RightShoulder  3.62049 7.34189 27.3948
RightArm  19.472 -15.6052 33.9099
RightForeArm  97.0295 70.0544 143.956
RightHand  -0.137131 3.35396 -2.06209
LeftUpLeg  0.881073 0.493028 1.69352
LeftLeg  -4.87769 20.173 -2.05457
LeftFoot  1.03611 0.190488 -1.8523
LeftToes  4.7713e-008 1.46693e-008 1.32589e-009
428
root  -3.11118 40.9664 0.738812 -178.629 -85.3044 -177.455
RightUpLeg  0.510175 -1.08113 -2.2162
RightLeg  -3.89184 -15.0197 1.10141
RightFoot  0.942528 -0.43284 4.08788
RightToes  -3.11842e-008 1.75238e-005 3.56266e-009
Spine  -4.46788 -2.94187 -8.43603
Spine1  -2.62575 -3.55935 7.94238
HEad  -10.4147 8.51759 -1.2838
LeftShoulder1  3.07856 -6.42102 -24.8461
LeftArm  -53.1402 -37.3273 -34.8969
LeftForeArm  -37.6132 -35.9301 -9.91296
LeftHand  1.25262 14.3239 16.519
RightShoulder  3.58417 7.20986 27.4684
RightArm  20.0768 -16.2387 33.7941
RightForeArm  97.3496 70.1535 143.787
RightHand  -0.145361 3.57992 -2.13243
LeftUpLeg  0.918628 0.519642 1.689
LeftLeg  -4.88539 19.8364 -2.08677
LeftFoot  1.02616 0.186353 -1.81954
LeftToes  4.7713e-008 1.46693e-008 1.32589e-009
